<mxfile host="app.diagrams.net" modified="2024-01-09T09:33:05.385Z" agent="Mozilla/5.0 (Windows NT 10.0; Win64; x64) AppleWebKit/537.36 (KHTML, like Gecko) Chrome/120.0.0.0 Safari/537.36" version="22.1.16" etag="j4iHZyx9xZ34JiCY8p7_" type="github">
  <diagram name="Page-1" id="nnJ8N8mO_btuNGnQkL9N">
    <mxGraphModel>
      <root>
        <mxCell id="0" />
        <mxCell id="1" parent="0" />
      </root>
    </mxGraphModel>
  </diagram>
</mxfile>
